<svg xmlns="http://www.w3.org/2000/svg" width="108" height="108" viewBox="0 0 108 108">
  <g id="dice_face_05" transform="translate(-511.99 -0.5)">
    <rect id="Rectangle_16" data-name="Rectangle 16" width="108" height="108" rx="12.04" transform="translate(511.99 0.5)" fill="#fff"/>
    <g id="Group_29" data-name="Group 29">
      <circle id="Ellipse_22" data-name="Ellipse 22" cx="11.05" cy="11.05" r="11.05" transform="translate(589.2 76.26)" fill="#423f40"/>
      <path id="Path_5618" data-name="Path 5618" d="M599.17,95.04s6.58.74,8.22-5.72" fill="none" stroke="#fff" stroke-linecap="round" stroke-linejoin="round" stroke-width="2"/>
    </g>
    <g id="Group_30" data-name="Group 30">
      <circle id="Ellipse_23" data-name="Ellipse 23" cx="11.05" cy="11.05" r="11.05" transform="translate(589.2 10.31)" fill="#423f40"/>
      <path id="Path_5619" data-name="Path 5619" d="M599.17,29.09s6.58.74,8.22-5.72" fill="none" stroke="#fff" stroke-linecap="round" stroke-linejoin="round" stroke-width="2"/>
    </g>
    <g id="Group_31" data-name="Group 31">
      <circle id="Ellipse_24" data-name="Ellipse 24" cx="11.05" cy="11.05" r="11.05" transform="translate(520.15 76.26)" fill="#423f40"/>
      <path id="Path_5620" data-name="Path 5620" d="M530.11,95.04s6.58.74,8.22-5.72" fill="none" stroke="#fff" stroke-linecap="round" stroke-linejoin="round" stroke-width="2"/>
    </g>
    <g id="Group_32" data-name="Group 32">
      <circle id="Ellipse_25" data-name="Ellipse 25" cx="11.05" cy="11.05" r="11.05" transform="translate(554.94 43.45)" fill="#423f40"/>
      <path id="Path_5621" data-name="Path 5621" d="M564.9,62.23s6.58.74,8.22-5.72" fill="none" stroke="#fff" stroke-linecap="round" stroke-linejoin="round" stroke-width="2"/>
    </g>
    <g id="Group_33" data-name="Group 33">
      <circle id="Ellipse_26" data-name="Ellipse 26" cx="11.05" cy="11.05" r="11.05" transform="translate(520.15 10.31)" fill="#423f40"/>
      <path id="Path_5622" data-name="Path 5622" d="M530.11,29.09s6.58.74,8.22-5.72" fill="none" stroke="#fff" stroke-linecap="round" stroke-linejoin="round" stroke-width="2"/>
    </g>
    <path id="Path_5623" data-name="Path 5623" d="M619.99,12.55V96.48a12.055,12.055,0,0,1-10.78,11.98,11.983,11.983,0,0,0,3.12-8.08V9.26A11.985,11.985,0,0,0,608.58.54a12.026,12.026,0,0,1,11.41,12.01Z" fill="#e6e7e8"/>
  </g>
</svg>
