<svg xmlns="http://www.w3.org/2000/svg" width="108" height="108" viewBox="0 0 108 108">
  <g id="dice_face_03" transform="translate(-256.24 -2.51)">
    <rect id="Rectangle_8" data-name="Rectangle 8" width="108" height="108" rx="12.04" transform="translate(256.24 2.51)" fill="#fff"/>
    <g id="Group_10" data-name="Group 10">
      <circle id="Ellipse_7" data-name="Ellipse 7" cx="11.05" cy="11.05" r="11.05" transform="translate(299.22 45.46)" fill="#423f40"/>
      <path id="Path_5599" data-name="Path 5599" d="M309.19,64.24s6.58.74,8.22-5.72" fill="none" stroke="#fff" stroke-linecap="round" stroke-linejoin="round" stroke-width="2"/>
    </g>
    <g id="Group_11" data-name="Group 11">
      <circle id="Ellipse_8" data-name="Ellipse 8" cx="11.05" cy="11.05" r="11.05" transform="translate(333.37 78.27)" fill="#423f40"/>
      <path id="Path_5600" data-name="Path 5600" d="M343.33,97.05s6.58.74,8.22-5.72" fill="none" stroke="#fff" stroke-linecap="round" stroke-linejoin="round" stroke-width="2"/>
    </g>
    <g id="Group_12" data-name="Group 12">
      <circle id="Ellipse_9" data-name="Ellipse 9" cx="11.05" cy="11.05" r="11.05" transform="translate(264.4 12.32)" fill="#423f40"/>
      <path id="Path_5601" data-name="Path 5601" d="M274.37,31.1s6.58.74,8.22-5.72" fill="none" stroke="#fff" stroke-linecap="round" stroke-linejoin="round" stroke-width="2"/>
    </g>
    <path id="Path_5602" data-name="Path 5602" d="M364.24,14.56V98.49a12.055,12.055,0,0,1-10.78,11.98,11.983,11.983,0,0,0,3.12-8.08V11.27a11.985,11.985,0,0,0-3.75-8.72A12.026,12.026,0,0,1,364.24,14.56Z" fill="#e6e7e8"/>
  </g>
</svg>
