<svg xmlns="http://www.w3.org/2000/svg" width="108" height="108" viewBox="0 0 108 108">
  <g id="dice_face_02" transform="translate(-128.37 -0.5)">
    <rect id="Rectangle_10" data-name="Rectangle 10" width="108" height="108" rx="12.04" transform="translate(128.37 0.5)" fill="#fff"/>
    <g id="Group_14" data-name="Group 14">
      <circle id="Ellipse_10" data-name="Ellipse 10" cx="11.05" cy="11.05" r="11.05" transform="translate(205.29 76.26)" fill="#423f40"/>
      <path id="Path_5603" data-name="Path 5603" d="M215.26,95.04s6.58.74,8.22-5.72" fill="none" stroke="#fff" stroke-linecap="round" stroke-linejoin="round" stroke-width="2"/>
    </g>
    <g id="Group_15" data-name="Group 15">
      <circle id="Ellipse_11" data-name="Ellipse 11" cx="11.05" cy="11.05" r="11.05" transform="translate(136.53 10.31)" fill="#423f40"/>
      <path id="Path_5604" data-name="Path 5604" d="M146.5,29.09s6.58.74,8.22-5.72" fill="none" stroke="#fff" stroke-linecap="round" stroke-linejoin="round" stroke-width="2"/>
    </g>
    <path id="Path_5605" data-name="Path 5605" d="M236.37,12.55V96.48a12.055,12.055,0,0,1-10.78,11.98,11.983,11.983,0,0,0,3.12-8.08V9.26A11.985,11.985,0,0,0,224.96.54,12.026,12.026,0,0,1,236.37,12.55Z" fill="#e6e7e8"/>
    <rect id="Rectangle_11" data-name="Rectangle 11" width="108" height="108" rx="12.04" transform="translate(128.37 0.5)" fill="none"/>
  </g>
</svg>
