<svg xmlns="http://www.w3.org/2000/svg" width="108" height="108" viewBox="0 0 108 108">
  <g id="dice_face_06" transform="translate(-639.86 -0.5)">
    <rect id="Rectangle_14" data-name="Rectangle 14" width="108" height="108" rx="12.04" transform="translate(639.86 0.5)" fill="#fff"/>
    <g id="Group_22" data-name="Group 22">
      <circle id="Ellipse_16" data-name="Ellipse 16" cx="11.05" cy="11.05" r="11.05" transform="translate(717.28 76.43)" fill="#423f40"/>
      <path id="Path_5611" data-name="Path 5611" d="M727.24,95.21s6.58.74,8.22-5.72" fill="none" stroke="#fff" stroke-linecap="round" stroke-linejoin="round" stroke-width="2"/>
    </g>
    <g id="Group_23" data-name="Group 23">
      <circle id="Ellipse_17" data-name="Ellipse 17" cx="11.05" cy="11.05" r="11.05" transform="translate(717.28 10.47)" fill="#423f40"/>
      <path id="Path_5612" data-name="Path 5612" d="M727.24,29.26s6.58.74,8.22-5.72" fill="none" stroke="#fff" stroke-linecap="round" stroke-linejoin="round" stroke-width="2"/>
    </g>
    <g id="Group_24" data-name="Group 24">
      <circle id="Ellipse_18" data-name="Ellipse 18" cx="11.05" cy="11.05" r="11.05" transform="translate(648.02 76.26)" fill="#423f40"/>
      <path id="Path_5613" data-name="Path 5613" d="M657.99,95.04s6.58.74,8.22-5.72" fill="none" stroke="#fff" stroke-linecap="round" stroke-linejoin="round" stroke-width="2"/>
    </g>
    <g id="Group_25" data-name="Group 25">
      <circle id="Ellipse_19" data-name="Ellipse 19" cx="11.05" cy="11.05" r="11.05" transform="translate(648.02 10.31)" fill="#423f40"/>
      <path id="Path_5614" data-name="Path 5614" d="M657.99,29.09s6.58.74,8.22-5.72" fill="none" stroke="#fff" stroke-linecap="round" stroke-linejoin="round" stroke-width="2"/>
    </g>
    <g id="Group_26" data-name="Group 26">
      <circle id="Ellipse_20" data-name="Ellipse 20" cx="11.05" cy="11.05" r="11.05" transform="translate(648.02 43.45)" fill="#423f40"/>
      <path id="Path_5615" data-name="Path 5615" d="M657.99,62.23s6.58.74,8.22-5.72" fill="none" stroke="#fff" stroke-linecap="round" stroke-linejoin="round" stroke-width="2"/>
    </g>
    <g id="Group_27" data-name="Group 27">
      <circle id="Ellipse_21" data-name="Ellipse 21" cx="11.05" cy="11.05" r="11.05" transform="translate(716.19 43.45)" fill="#423f40"/>
      <path id="Path_5616" data-name="Path 5616" d="M726.16,62.23s6.58.74,8.22-5.72" fill="none" stroke="#fff" stroke-linecap="round" stroke-linejoin="round" stroke-width="2"/>
    </g>
    <path id="Path_5617" data-name="Path 5617" d="M747.86,12.55V96.48a12.055,12.055,0,0,1-10.78,11.98,11.983,11.983,0,0,0,3.12-8.08V9.26A11.985,11.985,0,0,0,736.45.54a12.026,12.026,0,0,1,11.41,12.01Z" fill="#e6e7e8"/>
  </g>
</svg>
