<svg xmlns="http://www.w3.org/2000/svg" width="108" height="108" viewBox="0 0 108 108">
  <g id="dice_face_04" transform="translate(-384.12 -0.5)">
    <rect id="Rectangle_12" data-name="Rectangle 12" width="108" height="108" rx="12.04" transform="translate(384.12 0.5)" fill="#fff"/>
    <g id="Group_17" data-name="Group 17">
      <circle id="Ellipse_12" data-name="Ellipse 12" cx="11.05" cy="11.05" r="11.05" transform="translate(461.53 76.43)" fill="#423f40"/>
      <path id="Path_5606" data-name="Path 5606" d="M471.5,95.21s6.58.74,8.22-5.72" fill="none" stroke="#fff" stroke-linecap="round" stroke-linejoin="round" stroke-width="2"/>
    </g>
    <g id="Group_18" data-name="Group 18">
      <circle id="Ellipse_13" data-name="Ellipse 13" cx="11.05" cy="11.05" r="11.05" transform="translate(461.53 10.47)" fill="#423f40"/>
      <path id="Path_5607" data-name="Path 5607" d="M471.5,29.26s6.58.74,8.22-5.72" fill="none" stroke="#fff" stroke-linecap="round" stroke-linejoin="round" stroke-width="2"/>
    </g>
    <g id="Group_19" data-name="Group 19">
      <circle id="Ellipse_14" data-name="Ellipse 14" cx="11.05" cy="11.05" r="11.05" transform="translate(392.28 76.26)" fill="#423f40"/>
      <path id="Path_5608" data-name="Path 5608" d="M402.24,95.04s6.58.74,8.22-5.72" fill="none" stroke="#fff" stroke-linecap="round" stroke-linejoin="round" stroke-width="2"/>
    </g>
    <g id="Group_20" data-name="Group 20">
      <circle id="Ellipse_15" data-name="Ellipse 15" cx="11.05" cy="11.05" r="11.05" transform="translate(392.28 10.31)" fill="#423f40"/>
      <path id="Path_5609" data-name="Path 5609" d="M402.24,29.09s6.58.74,8.22-5.72" fill="none" stroke="#fff" stroke-linecap="round" stroke-linejoin="round" stroke-width="2"/>
    </g>
    <path id="Path_5610" data-name="Path 5610" d="M492.12,12.55V96.48a12.055,12.055,0,0,1-10.78,11.98,11.983,11.983,0,0,0,3.12-8.08V9.26A11.985,11.985,0,0,0,480.71.54,12.026,12.026,0,0,1,492.12,12.55Z" fill="#e6e7e8"/>
  </g>
</svg>
