<svg id="ic_nav_history" xmlns="http://www.w3.org/2000/svg" width="40" height="40" viewBox="0 0 40 40">
  <circle id="BG" cx="20" cy="20" r="20" fill="#d87153"/>
  <g id="history" transform="translate(-302 -32)">
    <g id="history-2" data-name="history" transform="translate(-55.345 -469.345)">
      <path id="Vector" d="M0,5.56H4.938" transform="translate(366.224 510.847)" fill="none" stroke="#fff" stroke-linecap="round" stroke-linejoin="round" stroke-width="2"/>
      <path id="Vector-2" data-name="Vector" d="M13.956,21.874A11.121,11.121,0,0,0,11.121,0C3.7,0,0,6.183,0,6.183V1.112" transform="translate(366.224 510.224)" fill="none" stroke="#fff" stroke-linecap="round" stroke-linejoin="round" stroke-width="2"/>
      <path id="Vector-3" data-name="Vector" d="M0,0A11.125,11.125,0,0,0,11.121,11.121" transform="translate(366.224 521.345)" fill="none" stroke="#fff" stroke-linecap="round" stroke-linejoin="round" stroke-width="2" stroke-dasharray="3 3"/>
      <path id="Vector-4" data-name="Vector" d="M0,0H26.69V26.69H0Z" transform="translate(390.69 534.69) rotate(180)" fill="none" opacity="0"/>
      <path id="Vector-5" data-name="Vector" d="M4.537,8.53,1.09,6.472A2.463,2.463,0,0,1,0,4.559V0" transform="translate(376.233 517.08)" fill="none" stroke="#fff" stroke-linecap="round" stroke-linejoin="round" stroke-width="2"/>
    </g>
    <rect id="Box" width="28" height="28" transform="translate(308 38)" fill="none"/>
  </g>
</svg>
