<svg id="illustration_empty_history" xmlns="http://www.w3.org/2000/svg" width="152" height="108" viewBox="0 0 152 108">
  <rect id="Box" width="152" height="108" fill="none"/>
  <g id="c" transform="translate(4.145 13)">
    <g id="Group_111" data-name="Group 111">
      <g id="Group_110" data-name="Group 110">
        <path id="Path_11511" data-name="Path 11511" d="M127.37,78.51l-42.6,3.16,17.36-39.19,40.58-2.98Z" fill="#fff" stroke="#424142" stroke-linecap="square" stroke-linejoin="round" stroke-width="2"/>
        <path id="Path_11512" data-name="Path 11512" d="M58.49,47.99,84.77,81.67l17.36-39.19L77.08,10.42Z" fill="#fff" stroke="#424142" stroke-linecap="square" stroke-linejoin="round" stroke-width="2"/>
        <path id="Path_11513" data-name="Path 11513" d="M77.22,10.48l24.91,32,40.48-3.14L117.18,8.89Z" fill="#fff" stroke="#424142" stroke-linecap="square" stroke-linejoin="round" stroke-width="2"/>
      </g>
      <ellipse id="Ellipse_28" data-name="Ellipse 28" cx="4.01" cy="2.18" rx="4.01" ry="2.18" transform="translate(73.102 26.25) rotate(-66.1)" fill="#414042" stroke="#414042" stroke-width="3"/>
      <ellipse id="Ellipse_29" data-name="Ellipse 29" cx="4.01" cy="2.18" rx="4.01" ry="2.18" transform="translate(89.87 47.676) rotate(-66.1)" fill="#414042" stroke="#414042" stroke-width="3"/>
      <ellipse id="Ellipse_30" data-name="Ellipse 30" cx="4.01" cy="2.18" rx="4.01" ry="2.18" transform="translate(79.874 70.239) rotate(-66.1)" fill="#414042" stroke="#414042" stroke-width="3"/>
      <ellipse id="Ellipse_31" data-name="Ellipse 31" cx="4.01" cy="2.18" rx="4.01" ry="2.18" transform="translate(62.419 48.481) rotate(-66.1)" fill="#414042" stroke="#414042" stroke-width="3"/>
      <ellipse id="Ellipse_32" data-name="Ellipse 32" cx="2.18" cy="4.01" rx="2.18" ry="4.01" transform="translate(109.509 16.672) rotate(-66.1)" fill="#414042" stroke="#414042" stroke-width="3"/>
      <ellipse id="Ellipse_33" data-name="Ellipse 33" cx="2.18" cy="4.01" rx="2.18" ry="4.01" transform="translate(101.251 35.284) rotate(-66.1)" fill="#414042" stroke="#414042" stroke-width="3"/>
      <ellipse id="Ellipse_34" data-name="Ellipse 34" cx="4.01" cy="2.18" rx="4.01" ry="2.18" transform="translate(111.341 64.505) rotate(-66.1)" fill="#414042" stroke="#414042" stroke-width="3"/>
    </g>
    <g id="Group_113" data-name="Group 113">
      <g id="Group_112" data-name="Group 112">
        <path id="Path_11514" data-name="Path 11514" d="M85.33,39.33,59.69,73.49,41.6,34.64,66.05,2.12Z" fill="#fff" stroke="#424142" stroke-linecap="round" stroke-linejoin="round" stroke-width="2"/>
        <path id="Path_11515" data-name="Path 11515" d="M17.06,70.93l42.66,2.36L41.62,34.43,1,32.21Z" fill="#fff" stroke="#424142" stroke-linecap="round" stroke-linejoin="round" stroke-width="2"/>
        <path id="Path_11516" data-name="Path 11516" d="M1.14,32.15l40.48,2.28L65.89,1.88,26.23,1Z" fill="#fff" stroke="#424142" stroke-linecap="round" stroke-linejoin="round" stroke-width="2"/>
      </g>
      <ellipse id="Ellipse_35" data-name="Ellipse 35" cx="2.18" cy="4.01" rx="2.18" ry="4.01" transform="matrix(0.926, -0.378, 0.378, 0.926, 7.773, 38.574)" fill="#414042" stroke="#414042" stroke-width="3"/>
      <ellipse id="Ellipse_36" data-name="Ellipse 36" cx="2.18" cy="4.01" rx="2.18" ry="4.01" transform="matrix(0.926, -0.378, 0.378, 0.926, 16.829, 60.741)" fill="#414042" stroke="#414042" stroke-width="3"/>
      <ellipse id="Ellipse_37" data-name="Ellipse 37" cx="2.18" cy="4.01" rx="2.18" ry="4.01" transform="matrix(0.926, -0.378, 0.378, 0.926, 34.115, 40.247)" fill="#414042" stroke="#414042" stroke-width="3"/>
      <ellipse id="Ellipse_38" data-name="Ellipse 38" cx="2.18" cy="4.01" rx="2.18" ry="4.01" transform="matrix(0.926, -0.378, 0.378, 0.926, 45.509, 62.29)" fill="#414042" stroke="#414042" stroke-width="3"/>
      <ellipse id="Ellipse_39" data-name="Ellipse 39" cx="2.18" cy="4.01" rx="2.18" ry="4.01" transform="translate(56.565 55.099) rotate(-37.2)" fill="#414042" stroke="#414042" stroke-width="3"/>
      <ellipse id="Ellipse_40" data-name="Ellipse 40" cx="2.18" cy="4.01" rx="2.18" ry="4.01" transform="translate(59.178 35.993) rotate(-37.2)" fill="#414042" stroke="#414042" stroke-width="3"/>
      <ellipse id="Ellipse_41" data-name="Ellipse 41" cx="2.18" cy="4.01" rx="2.18" ry="4.01" transform="translate(61.872 16.331) rotate(-37.2)" fill="#414042" stroke="#414042" stroke-width="3"/>
      <ellipse id="Ellipse_42" data-name="Ellipse 42" cx="4.01" cy="2.18" rx="4.01" ry="2.18" transform="translate(27.874 19.03) rotate(-52.2)" fill="#414042" stroke="#414042" stroke-width="3"/>
    </g>
  </g>
</svg>
